# xmcd
#
# Track frame offsets: 
#        150
#        21435
#        40643
#        56333
#        75616
#        97291
#        113851
#        132781
#        149319
#        165384
#        183414
#        204804
#        229697
#        257350
#        272470
#        293230
#        303085
#        322180
#
# Disc length: 4561 seconds
#
# Revision: 0
# Processed by: cddbd v1.5.2PL0 Copyright (c) Steve Scherf et al.
# Submitted via: ExactAudioCopy v1.0b4
#
DISCID=ef11cf12
DTITLE=Grey Wolf - My Favorite Tunes
DYEAR=1900
DGENRE=Blues
TTITLE0=Boom, Boom, Boom - J. L. Hooker
TTITLE1=St. James Infirmary - Trad.
TTITLE2=Reno Factory - Trad.
TTITLE3=In The Pines - Trad.
TTITLE4=Further On Up The Roads - B. Springsteen
TTITLE5=Ain't No Grave - Trad.+J. Cash
TTITLE6=Personal Jesus - Depeche Mode
TTITLE7=Hurt - M. T. Reznor
TTITLE8=Highway Kind - T. v. Zandt
TTITLE9=If I Need You - T. v. Zandt
TTITLE10=Fort Worth Blues - G. Clark
TTITLE11=Man In The Long Black Coat - B. Dylan
TTITLE12=The Maker - D. Lanois
TTITLE13=Working Class Hero - J. Lennon
TTITLE14=Rex Blues - T. v. Zandt
TTITLE15=The Needle And The Demage Done - N. Young
TTITLE16=As Tears Go By - M. Jagger+K. Richards
TTITLE17=Motherland - N. Merchant
EXTD=
EXTT0=
EXTT1=
EXTT2=
EXTT3=
EXTT4=
EXTT5=
EXTT6=
EXTT7=
EXTT8=
EXTT9=
EXTT10=
EXTT11=
EXTT12=
EXTT13=
EXTT14=
EXTT15=
EXTT16=
EXTT17=
PLAYORDER=
